<svg xmlns="http://www.w3.org/2000/svg" width="1109" height="230" fill="none" aria-label="Gothamist" class="gothamist-logo gothamist-header-center-logo"><path fill="#000" fill-rule="evenodd" d="M0 114.885C0 47.378 29.418 0 72.151 0c10.843 0 18.3 3.498 24.21 6.271 3.881 1.82 7.095 3.329 10.163 3.329 4.645 0 8.051-2.787 8.98-5.884h7.742v57.288h-8.051c-.31-16.103-23.844-47.998-45.211-47.998-25.083 0-39.947 27.25-39.947 75.248 0 74.319 20.128 125.414 47.998 125.414 10.529 0 18.89-6.194 24.154-17.342v-71.841c0-3.407-7.122-11.458-9.6-11.458H82.68v-8.051h65.339v8.051h-6.813c-3.096 0-9.909 8.051-9.909 11.458v102.188h-1.548l-18.58-17.031c-9.6 12.696-23.534 20.128-40.566 20.128C28.8 229.77 0 182.701 0 114.885Zm156.999 32.824c0-47.998 24.154-82.06 58.526-82.06 34.373 0 58.527 34.063 58.527 82.06 0 47.998-24.154 82.061-58.527 82.061-34.372 0-58.526-34.063-58.526-82.061Zm91.351 26.012c0-53.572-17.651-94.447-39.947-94.447-15.483 0-25.702 15.793-25.702 42.424 0 53.262 17.651 94.447 39.947 94.447 15.483 0 25.702-15.793 25.702-42.424Zm82.358 56.049c13.935 0 25.702-13.315 37.159-31.895l-6.193-4.026c-7.742 10.529-14.864 16.412-20.128 16.412-9.29 0-14.864-8.98-14.864-15.483V84.848h35.611V73.39h-36.85V28.49h-7.122c-.309 7.432-25.702 44.901-32.205 44.901h-9.909v10.838h22.296v113.956c0 18.271 12.386 31.586 32.205 31.586Zm82.06-137.49c13.625-13.935 29.418-27.25 45.83-27.25 20.129 0 34.683 19.508 34.683 36.849v105.905c0 3.406 6.503 11.148 8.98 11.148h6.813v7.741h-59.765v-7.741h6.502c2.478 0 9.29-7.742 9.29-11.148V103.427c0-9.29-8.361-18.27-16.412-18.27-11.148 0-25.082 9.91-35.921 21.677v100.95c0 3.406 6.813 11.148 9.29 11.148h5.884v7.741h-58.527v-7.741h5.884c2.477 0 9.29-7.742 9.29-11.148V28.179c0-4.645-8.671-12.696-12.077-12.696h-6.193V7.742c16.102-.31 33.753-3.407 44.901-7.742h1.548v92.28Zm174.341 23.534c-47.069 21.676-70.603 39.637-70.603 71.842 0 25.392 14.244 42.114 36.23 42.114 13.006 0 25.083-9.6 36.231-20.128 3.406 10.838 12.696 18.889 22.915 18.889s19.199-10.219 28.179-31.276l-6.503-3.096c-4.025 7.741-8.051 13.006-11.457 13.006-3.406 0-6.813-4.336-6.813-8.981v-86.396c0-29.108-15.792-46.14-43.352-46.14-30.657 0-53.882 18.27-53.882 39.018 0 6.193 4.026 9.6 11.148 9.6 10.529 0 18.58-5.265 18.58-12.387 0-1.589-.163-3.83-.322-6.013v-.001l-.001-.013c-.15-2.066-.297-4.077-.297-5.43 0-6.813 5.265-13.006 16.413-13.006 13.934 0 23.534 11.457 23.534 28.489v9.909Zm0 81.441c-7.742 8.052-14.864 13.316-22.605 13.316-12.387 0-21.057-14.245-21.057-33.753 0-23.844 16.721-35.921 43.662-49.856v70.293Zm0 1.858v.62l-.619-.62h.619Zm112.717 27.56H641.3v-7.741h5.883c2.478 0 9.29-7.742 9.29-11.148V97.234c0-4.645-8.67-12.696-12.077-12.696h-6.193v-7.742c8.051-.619 28.489-6.812 37.469-11.147h1.549l6.503 24.153c13.005-13.006 26.94-24.773 42.114-24.773 16.722 0 27.25 11.148 30.656 25.083 12.697-13.006 26.941-25.083 42.115-25.083 20.128 0 31.585 16.412 31.585 33.754v109.001c0 3.406 6.813 11.148 9.29 11.148h5.884v7.741h-58.527v-7.741h5.884c2.477 0 9.29-7.742 9.29-11.148V100.331c0-9.29-5.264-15.174-13.316-15.174-9.599 0-21.057 8.361-31.276 18.58v104.047c0 3.406 6.813 11.148 9.29 11.148h5.884v7.741h-58.526v-7.741h5.883c2.477 0 9.29-7.742 9.29-11.148V100.331c0-9.29-5.264-15.174-13.315-15.174-9.6 0-21.058 8.361-31.276 18.58v104.047c0 3.406 6.812 11.148 9.29 11.148h5.883v7.741Zm196.934-18.889V65.649h-1.549c-9.29 4.335-37.779 10.528-46.449 11.147v7.742h7.741c3.407 0 12.077 8.051 12.077 12.696v110.55c0 3.406-6.812 11.148-9.29 11.148h-7.432v7.741h61.623v-7.741h-7.432c-2.477 0-9.289-7.742-9.289-11.148ZM862.077 27.56c0 10.838 8.671 18.89 18.89 18.89 10.219 0 18.889-8.052 18.889-18.89 0-10.838-8.67-18.89-18.889-18.89s-18.89 8.052-18.89 18.89Zm64.41 199.113V174.96h7.432c1.239 11.148 19.199 41.804 40.566 41.804 12.077 0 21.057-9.599 21.057-24.463 0-11.767-6.813-20.128-17.651-27.56l-32.205-21.986c-15.173-10.219-21.676-21.367-21.676-34.992 0-24.773 18.27-40.566 39.946-40.566 10.167 0 16.888 2.97 22.003 5.231 3.142 1.39 5.678 2.51 8.035 2.51 2.477 0 5.264-2.167 6.196-4.954h6.19v44.901h-6.812c-1.239-9.6-18.271-36.23-36.231-36.23-9.909 0-17.031 6.193-17.031 16.102s7.431 17.341 17.341 24.154l32.205 22.295c15.478 10.839 22.608 23.225 22.608 38.708 0 29.109-19.821 48.308-45.833 48.308-9.807 0-17.106-3.224-22.64-5.668-3.377-1.492-6.096-2.693-8.326-2.693-3.716 0-7.123 3.096-8.361 6.812h-6.813Zm144.613 3.097c13.93 0 25.7-13.315 37.16-31.895l-6.19-4.026c-7.75 10.529-14.87 16.412-20.13 16.412-9.29 0-14.87-8.98-14.87-15.483V84.848h35.62V73.39h-36.85V28.49h-7.13c-.31 7.432-25.7 44.901-32.2 44.901h-9.91v10.838h22.29v113.956c0 18.271 12.39 31.586 32.21 31.586Z" clip-rule="evenodd"/></svg>